<?xml version="1.0" encoding="UTF-8" standalone="no"?>
<svg
   version="1.1"
   id="Layer_1"
   x="0px"
   y="0px"
   width="100%"
   viewBox="0 0 1024 1024"
   enable-background="new 0 0 1024 1024"
   xml:space="preserve"
   sodipodi:docname="logoofcresize.svg"
   inkscape:version="1.4.3 (0d15f75042, 2025-12-25)"
   xmlns:inkscape="http://www.inkscape.org/namespaces/inkscape"
   xmlns:sodipodi="http://sodipodi.sourceforge.net/DTD/sodipodi-0.dtd"
   xmlns="http://www.w3.org/2000/svg"
   xmlns:svg="http://www.w3.org/2000/svg"><defs
   id="defs2" /><sodipodi:namedview
   id="namedview2"
   pagecolor="#ffffff"
   bordercolor="#000000"
   borderopacity="0.25"
   inkscape:showpageshadow="2"
   inkscape:pageopacity="0.0"
   inkscape:pagecheckerboard="0"
   inkscape:deskcolor="#d1d1d1"
   inkscape:zoom="0.71191406"
   inkscape:cx="512"
   inkscape:cy="512"
   inkscape:window-width="1920"
   inkscape:window-height="940"
   inkscape:window-x="0"
   inkscape:window-y="0"
   inkscape:window-maximized="1"
   inkscape:current-layer="Layer_1"
   showgrid="false" />
<path
   fill="#000000"
   opacity="1"
   stroke="none"
   d="m 1004.8151,522.94639 c 0.03,50.97295 -0.043,101.16589 0.1982,151.35751 0.038,7.79988 -2.2466,12.91907 -9.61236,17.02899 -68.21334,38.06052 -136.19554,76.51554 -204.30033,114.76191 -60.48124,33.96512 -121.04183,67.79552 -181.5511,101.71318 -60.74458,34.04951 -121.55649,67.98642 -182.10197,102.37022 -8.57519,4.8699 -15.21026,4.2849 -23.44519,-0.3911 C 328.02112,966.64369 251.8375,923.83987 175.75384,880.868 127.10886,853.39349 78.610662,825.67016 29.844884,798.40209 c -7.49615,-4.19145 -10.436321,-9.51594 -10.416875,-17.58951 0.168978,-70.21652 0.229922,-140.4335 0.17017,-210.65019 -0.0054,-6.73868 2.59627,-11.23734 8.555233,-14.57496 43.658405,-24.45288 87.233758,-49.04706 130.847538,-73.57597 13.15545,-7.39875 26.07977,-15.25391 39.61713,-21.91858 9.59871,-4.72563 12.86104,-11.01022 12.77314,-21.52494 -0.53474,-63.97279 -0.17809,-127.95223 -0.58893,-191.92663 -0.0564,-8.77322 3.14707,-13.98583 10.62095,-18.19161 42.68824,-24.02184 85.17386,-48.38636 127.84841,-72.43155 53.04831,-29.89035 106.18309,-59.634943 159.33961,-89.341783 30.96914,-17.30727 62.10859,-34.324929 93.03381,-51.706009 5.27764,-2.966208 9.72944,-2.972283 14.87141,-0.05891 63.11002,35.758024 126.25623,71.455234 189.44256,107.084492 5.85012,3.29871 7.45833,8.02919 7.44817,14.30197 -0.10482,65.27646 0.18534,130.55451 -0.23454,195.82842 -0.0634,9.85129 3.98039,15.40874 12.0617,19.88497 34.73821,19.2418 69.38749,38.63706 104.04364,58.01979 22.1795,12.40478 44.20743,25.07305 66.5352,37.21708 6.68049,3.63359 9.37399,8.25295 9.23659,15.63129 -0.3679,19.75703 -0.1937,39.52367 -0.2347,60.06689 M 621.5629,389.54276 c 0.0523,11.94619 0.28509,23.89508 0.10015,35.83774 -0.14747,9.52703 2.79061,11.67277 11.25969,7.01503 16.23193,-8.92705 32.27127,-18.18711 48.41194,-27.2728 32.27838,-18.16953 64.54272,-36.3631 96.8834,-54.42641 5.9516,-3.32408 8.47506,-7.83608 8.45309,-14.5928 -0.17744,-54.55962 -0.0996,-109.12001 -0.17081,-163.68006 -0.0136,-10.38141 -3.27521,-12.40991 -12.58925,-7.23546 -47.88887,26.60509 -95.62938,53.46444 -143.52091,80.06515 -6.55067,3.6385 -9.05675,8.3104 -9.00062,15.75001 0.31847,42.33665 0.16542,84.67674 0.17334,128.5396 m 130.80554,166.69969 c -4.63578,-2.55416 -9.29306,-5.07204 -13.90397,-7.6684 -35.052,-19.73761 -70.06838,-39.53577 -105.16031,-59.20534 -8.33333,-4.67094 -11.23237,-2.87117 -11.70994,6.75867 -0.0644,1.29734 -0.0482,2.59913 -0.0489,3.89885 -0.029,52.77221 0.0812,105.54523 -0.23259,158.31589 -0.0461,7.75159 2.66058,12.52527 9.45363,16.34204 47.99234,26.9643 95.82958,54.19149 143.76258,81.25676 8.64067,4.87877 12.0853,2.83661 12.01688,-7.07008 -0.12927,-18.70817 -0.59332,-37.41436 -0.68029,-56.12245 -0.16896,-36.37601 -0.24831,-72.75286 -0.17169,-109.12887 0.0121,-5.8975 -2.32336,-9.81803 -7.46961,-12.65609 -8.34485,-4.60212 -16.5591,-9.42961 -25.85587,-14.72098 M 322.72139,313.80325 c -24.68254,-13.92022 -49.32801,-27.90372 -74.0711,-41.72066 -7.09345,-3.96111 -9.31194,-2.5928 -9.89976,5.44277 -0.0947,1.29566 -0.0929,2.5997 -0.0936,3.89989 -0.0223,53.0643 0.1846,106.1304 -0.26192,159.19126 -0.0813,9.66466 3.51529,15.13946 11.88512,19.80856 46.48904,25.93406 92.71864,52.3111 139.04435,78.52433 9.1941,5.20256 13.50755,3.00078 13.51537,-7.23384 0.0411,-53.84577 -0.12286,-107.69189 0.01,-161.53734 0.0209,-8.49444 -3.29918,-13.87432 -11.0309,-18.02087 -22.87743,-12.26914 -45.40877,-25.15315 -69.09724,-38.3541 m 106.91675,520.52817 c 0.20335,20.51139 0.56967,41.0229 0.56679,61.5343 -0.002,23.10767 -0.48534,46.21555 -0.45636,69.32294 0.0106,8.93132 3.38863,10.50323 11.45989,6.02791 17.12348,-9.49459 34.25476,-18.97577 51.36035,-28.50087 30.28161,-16.8619 60.49091,-33.84858 90.85918,-50.56016 7.18199,-3.95226 10.88401,-8.83587 10.6037,-17.36603 -0.43413,-13.21174 0.60865,-26.46235 0.55897,-39.69485 -0.15186,-40.48915 -0.52531,-80.97753 -0.81431,-121.4662 -0.0803,-11.24564 -2.69201,-12.73963 -12.6527,-7.15553 -47.54461,26.65428 -95.04318,53.38755 -142.66499,79.90983 -6.04057,3.36427 -8.82813,7.87085 -8.79354,14.46518 0.056,10.65415 -0.0135,21.30884 -0.027,33.48348 M 977.30899,517.48443 c 0.0434,-7.28191 0.22495,-14.56618 0.0945,-21.84513 -0.15012,-8.36622 -2.95438,-10.13228 -10.23845,-6.05277 -48.97774,27.43001 -97.87575,54.99563 -146.81747,82.48709 -4.88138,2.74193 -7.08166,6.70675 -6.97595,12.19958 0.14993,7.7996 0.0121,15.60436 0.0138,23.40691 0.009,47.59599 3.9e-4,95.19199 0.0497,142.78798 0.0106,9.71915 1.76929,10.68035 10.71,6.20644 1.1852,-0.593 2.36708,-1.19631 3.52038,-1.8459 46.59785,-26.24191 93.11949,-52.61432 139.86396,-78.6052 7.15545,-3.97874 9.98362,-8.66697 9.92623,-16.73426 -0.33322,-46.81303 -0.17041,-93.62931 -0.1465,-142.00474 M 47.048919,732.87096 c -0.0103,9.87507 0.642011,19.80475 -0.207395,29.61057 -0.949861,10.96583 4.019271,17.03739 13.43535,22.19087 29.944803,16.38885 59.475946,33.49719 89.187466,50.29288 16.58315,9.37438 33.17074,18.74248 49.82719,27.99188 9.01874,5.00813 11.61189,3.43135 11.85361,-6.85127 0.0306,-1.2989 0.0294,-2.59856 0.0289,-3.89794 -0.0259,-52.75416 -0.20722,-105.50909 0.09,-158.26145 0.043,-7.63756 -2.97572,-11.90264 -9.38297,-15.48212 -30.95133,-17.29098 -61.73745,-34.86343 -92.6088,-52.29112 -17.279415,-9.75466 -34.551334,-19.52475 -51.948034,-29.07728 -6.966729,-3.82544 -9.621476,-2.2116 -10.125031,5.5799 -0.184084,2.84872 -0.100343,5.71517 -0.101713,8.5735 -0.01849,40.02029 -0.0306,80.04055 -0.0484,121.62158 M 396.54551,973.18699 c 6.64292,-0.66256 5.69623,-5.63641 5.93935,-9.94493 1.14372,-20.26447 -0.60109,-40.50277 -0.57273,-60.75828 0.0466,-33.26332 -0.27086,-66.52968 0.13261,-99.78822 0.10153,-8.3624 -2.86759,-13.18115 -10.26338,-17.30183 -47.15299,-26.27191 -94.06435,-52.95669 -141.06776,-79.48448 -9.32362,-5.2621 -11.69593,-4.01569 -11.70443,6.3719 -0.0441,54.0526 0.11027,108.10577 -0.15553,162.15712 -0.0369,7.49581 2.72974,11.99191 9.2421,15.59121 20.14779,11.1351 40.02007,22.74396 60.08586,34.02207 29.05615,16.33107 58.18824,32.53379 88.3639,49.13544 M 350.78773,590.91527 c 8.29706,-4.68337 16.64247,-9.2874 24.87933,-14.06966 11.06604,-6.42487 11.10527,-8.81615 0.20697,-15.03412 -17.23782,-9.83488 -34.55205,-19.54219 -51.81622,-29.33317 -29.92813,-16.97311 -59.94564,-33.80025 -89.68248,-51.08701 -6.53345,-3.79806 -11.84414,-4.18313 -18.22222,-0.11848 -7.1201,4.53744 -14.75762,8.29949 -22.15266,12.42845 -39.51524,22.06279 -79.0601,44.07539 -118.512633,66.24444 -10.150294,5.70365 -10.348897,9.55101 -1.195543,14.74691 47.410276,26.91253 94.934156,53.63618 142.188016,80.80739 6.93213,3.98605 12.20785,3.7941 18.96713,-0.0371 37.98583,-21.53079 76.19148,-42.69209 115.34031,-64.54752 M 682.55149,84.368837 C 661.41106,72.309477 640.16874,60.415268 619.18771,48.09734 c -6.94911,-4.079822 -13.231,-4.434215 -20.10357,-0.321884 -6.80369,4.071083 -13.79945,7.83729 -20.72552,11.71256 -39.4843,22.092593 -78.98915,44.150554 -118.45059,66.282054 -11.96548,6.71072 -12.01178,9.6338 -0.0303,16.46296 47.57522,27.11674 95.22879,54.10259 142.79966,81.22664 3.62813,2.06876 6.5546,2.1462 10.29546,0.0387 48.39426,-27.26437 96.88906,-54.35855 145.3252,-81.55221 10.25699,-5.75866 10.22148,-8.97624 -0.10377,-14.83401 C 733.34164,113.01245 708.43994,98.995209 682.5514,84.368814 M 648.87708,466.78721 c 47.47572,26.75402 95.01526,53.40143 142.35168,80.38818 6.38361,3.63941 11.14571,3.47945 17.50235,-0.17691 32.32037,-18.59137 64.94964,-36.67097 97.46308,-54.94306 15.22084,-8.55391 30.48063,-17.04427 45.61167,-25.74739 7.707,-4.43299 7.68592,-7.76587 0.34982,-12.35966 -1.34245,-0.84054 -2.75439,-1.57535 -4.13705,-2.35427 -42.41144,-23.89067 -84.74049,-47.92217 -127.26799,-71.61438 -23.15994,-12.90243 -15.88406,-14.13077 -40.05196,0.19848 -1.81895,1.07851 -3.6948,2.06533 -5.54205,3.09865 -42.25458,23.63629 -84.53075,47.23619 -126.74443,70.94192 -8.11969,4.55978 -8.06581,6.17857 0.46488,12.56844 M 369.51371,610.92495 c -34.36813,19.34004 -68.74927,38.65809 -103.09555,58.03513 -8.91865,5.03156 -8.85526,8.4088 0.19785,13.55666 16.3324,9.28676 32.70733,18.50261 49.06973,27.73915 30.42051,17.17237 60.95706,34.15336 91.18592,51.64113 7.21948,4.17666 13.11056,3.83336 19.85207,-0.4003 7.60041,-4.77293 15.59656,-8.94742 23.43815,-13.35263 39.4498,-22.16182 78.91384,-44.29954 118.35101,-66.4829 6.93045,-3.89842 7.18559,-6.68912 0.65549,-10.40188 -48.54038,-27.59786 -97.16983,-55.04674 -145.6876,-82.68224 -5.31801,-3.02915 -9.81496,-2.51215 -14.86528,0.40849 -12.59664,7.2848 -25.3672,14.28304 -39.10179,21.93939 M 574.29137,276.95304 c -39.90673,22.4495 -79.81854,44.89033 -119.71678,67.35429 -10.15274,5.71639 -10.10302,8.97097 0.12219,14.73926 41.72061,23.53556 83.44589,47.06301 125.15537,70.61727 11.98029,6.76554 15.05656,5.16865 15.05765,-8.13979 0.003,-44.71749 -0.0408,-89.435 -0.0816,-134.15249 -0.0186,-20.45382 -0.7624,-20.86307 -20.53674,-10.41854 M 475.5297,550.51378 c -6.70644,3.72332 -13.54459,7.24049 -20.08765,11.21979 -9.14257,5.56037 -9.00519,8.76737 0.40837,14.15541 12.85565,7.35815 25.79113,14.58341 38.69224,21.86603 29.72244,16.77817 59.41394,33.60874 89.18744,50.3003 8.02478,4.49886 11.40189,2.95409 11.42045,-5.1994 0.11118,-48.85576 0.12724,-97.71197 0.042,-146.56774 -0.016,-9.20453 -3.08506,-10.81556 -11.19673,-6.2975 -35.83235,19.95803 -71.63991,39.95844 -108.46605,60.52311 M 463.71711,394.7288 c -8.09906,-4.50142 -16.18814,-9.01994 -24.30082,-13.49795 -5.01979,-2.7707 -8.1634,-1.25785 -9.22516,4.17268 -0.44541,2.278 -0.58444,4.64346 -0.5855,6.96934 -0.0216,46.54439 -0.0294,93.0889 0.0303,139.63324 0.012,9.59233 3.71118,11.48587 12.42405,6.64968 25.69403,-14.26185 51.43643,-28.44122 77.08297,-42.78401 16.86588,-9.43229 33.6274,-19.04364 50.37857,-28.66927 8.29398,-4.76593 8.21229,-8.15917 -0.13801,-13.31072 -2.47534,-1.52706 -5.01969,-2.95056 -7.56197,-4.37097 C 529.46166,431.4406 497.0963,413.36958 463.7171,394.7288 m 233.43996,348.10184 c -20.71516,-11.7204 -41.42076,-23.45711 -62.14957,-35.15447 -10.73888,-6.06001 -13.64884,-4.53333 -13.65822,7.40694 -0.0363,46.49429 -0.01,92.98849 0.0574,139.48279 0.017,11.79812 3.50398,13.90981 13.73796,8.15549 41.48176,-23.32469 82.92232,-46.7194 124.32533,-70.17697 9.16286,-5.19142 9.15631,-9.12281 0.10408,-14.29383 -20.43415,-11.67269 -40.94133,-23.22371 -62.41692,-35.41995 M 438.9633,162.88775 c -7.31395,-1.9232 -8.43434,-0.83912 -8.49808,8.62718 -0.3095,45.98464 -0.61447,91.96934 -0.86546,137.95429 -0.0863,15.80884 1.50475,16.67239 15.90948,8.56742 40.8204,-22.96797 81.60674,-45.99372 122.40275,-69.00295 9.71403,-5.47883 9.89877,-7.86495 0.0295,-13.46309 -42.5823,-24.15386 -85.28054,-48.11261 -128.97831,-72.68285 M 309.0625,273.88443 c 27.19654,15.34331 54.35767,30.74696 81.60986,45.99554 8.86087,4.95797 12.21741,3.04158 12.23342,-6.85641 0.0766,-47.31732 0.0927,-94.6348 0.0407,-141.95211 -0.01,-8.44685 -3.18564,-10.43671 -10.86248,-6.57973 -8.51594,4.27857 -16.78939,9.02525 -25.09583,13.6912 -33.69413,18.92689 -67.42742,37.78908 -100.9937,56.93009 -9.37661,5.34698 -9.18448,8.98156 -0.0344,14.2337 14.00059,8.03618 28.07414,15.95127 43.10237,24.53772 z"
   id="path1"
   style="fill:#d4aa00;stroke-width:1.57984" />

</svg>
