<?xml version="1.0" encoding="UTF-8" standalone="no"?>
<svg
   version="1.1"
   id="Layer_1"
   x="0px"
   y="0px"
   width="100%"
   viewBox="0 0 1024 1024"
   enable-background="new 0 0 1024 1024"
   xml:space="preserve"
   sodipodi:docname="file.svg"
   inkscape:version="1.4.3 (0d15f75042, 2025-12-25)"
   xmlns:inkscape="http://www.inkscape.org/namespaces/inkscape"
   xmlns:sodipodi="http://sodipodi.sourceforge.net/DTD/sodipodi-0.dtd"
   xmlns="http://www.w3.org/2000/svg"
   xmlns:svg="http://www.w3.org/2000/svg"><defs
   id="defs1" /><sodipodi:namedview
   id="namedview1"
   pagecolor="#ffffff"
   bordercolor="#000000"
   borderopacity="0.25"
   inkscape:showpageshadow="2"
   inkscape:pageopacity="0.0"
   inkscape:pagecheckerboard="0"
   inkscape:deskcolor="#d1d1d1"
   inkscape:zoom="0.71191406"
   inkscape:cx="512"
   inkscape:cy="512"
   inkscape:window-width="1920"
   inkscape:window-height="940"
   inkscape:window-x="0"
   inkscape:window-y="0"
   inkscape:window-maximized="1"
   inkscape:current-layer="Layer_1" />
<path
   fill="#000000"
   opacity="1.000000"
   stroke="none"
   d=" M346.321045,100.277542   C386.871674,76.826820 427.106171,53.562130 467.337311,30.291672   C479.447418,23.286968 491.503632,16.187662 503.670929,9.283891   C510.385498,5.474002 517.028320,6.280047 523.598755,10.088150   C541.902649,20.696674 560.267029,31.200895 578.614929,41.733368   C605.776245,57.325092 632.970154,72.860153 660.102722,88.501625   C701.089600,112.129807 742.031921,135.835083 783.001831,159.492599   C790.936768,164.074524 798.820068,168.758514 806.896179,173.079453   C813.555786,176.642578 816.365723,182.209946 816.367126,189.404587   C816.377563,241.736374 816.318542,294.068146 816.325623,346.399933   C816.326538,353.064362 813.374878,357.780090 807.661804,361.044708   C783.941528,374.599121 760.256958,388.216034 736.546143,401.787048   C722.233521,409.978973 707.862793,418.070099 693.584900,426.321960   C686.445618,430.448029 686.530212,432.177460 693.592407,436.234100   C730.280334,457.308289 766.856201,478.581238 803.718933,499.344910   C812.818848,504.470642 816.476257,511.105103 816.455322,521.481201   C816.245728,625.311218 816.243042,729.142273 816.531738,832.972046   C816.562500,844.050598 812.340759,850.843933 802.877319,856.209778   C752.592041,884.722290 702.357178,913.332275 652.440491,942.483459   C610.152222,967.179688 567.352356,990.979675 525.153809,1015.819092   C516.694702,1020.798584 509.142487,1020.359741 501.202545,1015.800537   C488.200195,1008.334412 475.272675,1000.738037 462.275482,993.262878   C400.318146,957.628601 338.336517,922.036560 276.389130,886.384949   C257.473480,875.498657 238.695770,864.371765 219.738602,853.558960   C212.722641,849.557190 209.722305,843.620850 209.719635,835.877319   C209.701904,784.378601 209.752502,732.879761 209.678238,681.381165   C209.667328,673.813232 212.624039,668.383728 219.237625,664.593079   C246.554504,648.936279 273.803986,633.161804 301.057404,617.394531   C312.447723,610.804688 323.796600,604.142822 335.134583,597.463257   C336.507172,596.654602 338.210907,596.101624 338.821777,594.039551   C335.413239,590.891968 331.166779,588.906616 327.178680,586.613037   C292.519592,566.680298 257.857361,546.751587 223.066177,527.051025   C214.085999,521.965942 209.582077,515.149353 209.603256,504.522247   C209.809860,400.858459 209.816864,297.194153 209.744370,193.530106   C209.737000,182.992340 213.700653,175.936356 223.209381,170.621796   C256.362213,152.092194 289.130371,132.874680 322.063965,113.952133   C330.005829,109.389008 338.021729,104.954834 346.321045,100.277542  M415.810638,772.658081   C446.965149,790.611206 478.145630,808.519592 509.233368,826.587585   C512.290588,828.364380 514.443237,828.142578 517.364258,826.352722   C529.280334,819.051208 541.288452,811.890930 553.411682,804.938354   C576.502136,791.696289 599.703674,778.647766 622.829590,765.467224   C624.924561,764.273254 627.416809,763.413086 628.505798,760.601990   C625.351868,756.425171 620.338928,755.042175 616.124573,752.588013   C583.617432,733.657593 550.993225,714.928040 518.497864,695.977478   C514.740601,693.786316 511.851715,693.707275 508.032776,695.944824   C487.786102,707.807800 467.386169,719.409729 447.013123,731.056213   C431.840637,739.729858 416.610260,748.302246 401.444061,756.986816   C396.400940,759.874756 396.309784,761.341858 400.886810,764.079895   C405.600464,766.899597 410.411316,769.556824 415.810638,772.658081  M474.704590,57.269356   C450.468018,71.221916 426.235718,85.181946 401.991760,99.121635   C396.148865,102.481140 396.068024,103.535774 401.856812,106.860275   C437.512207,127.337173 473.219055,147.724884 508.810699,168.311813   C512.210266,170.278198 514.642212,170.007706 517.868774,168.131363   C553.114258,147.635529 588.441467,127.280266 623.740906,106.877350   C625.171021,106.050758 626.677795,105.259087 627.169067,103.390205   C626.453857,101.133026 624.453979,100.157654 622.610291,99.083015   C587.663757,78.714249 552.685608,58.399551 517.786499,37.949997   C514.564941,36.062309 511.957764,35.673180 508.620941,37.656754   C497.604767,44.205284 486.438354,50.500996 474.704590,57.269356  M721.041260,545.466064   C738.818542,535.199768 756.595764,524.933533 774.265808,514.729187   C773.395874,512.534729 772.142090,511.971222 771.010742,511.323700   C734.465332,490.407074 697.901855,469.521973 661.381165,448.562286   C658.928589,447.154663 656.919861,447.071198 654.441589,448.504608   C618.426819,469.335022 582.368835,490.090759 546.331360,510.881866   C544.783813,511.774689 542.936768,512.415405 542.446960,514.525940   C543.019531,516.738037 545.051453,517.477356 546.715393,518.431824   C582.372559,538.884949 618.068176,559.271240 653.721436,579.731323   C656.467468,581.307129 658.817871,581.421692 661.621216,579.791016   C681.182007,568.412842 700.808899,557.148376 721.041260,545.466064  M317.869690,224.565689   C333.588104,233.646790 349.356720,242.643143 364.979065,251.886581   C367.815521,253.564865 369.741974,252.923798 372.236237,251.487213   C400.371887,235.282669 428.558685,219.166855 456.733490,203.030304   C464.537231,198.560867 472.401886,194.194214 480.131134,189.599640   C484.149719,187.210846 484.054443,185.870956 480.184601,183.199127   C479.500549,182.726822 478.770752,182.318817 478.050018,181.901901   C443.595215,161.971008 409.103790,142.102798 374.728516,122.035652   C370.514832,119.575844 367.146667,119.286713 362.810181,121.786041   C327.175720,142.323822 291.424744,162.659439 255.728058,183.089401   C254.509018,183.787094 252.874039,184.259186 252.768250,186.846375   C274.092010,199.193832 295.669678,211.688309 317.869690,224.565689  M269.923706,688.556641   C271.100311,689.180603 272.294098,689.774414 273.450989,690.432983   C303.976166,707.809143 334.506561,725.176086 365.002319,742.603699   C367.435364,743.994263 369.379486,744.819397 372.271973,743.147522   C407.724609,722.655579 443.267456,702.319824 478.781860,681.934753   C484.743622,678.512756 484.837463,677.342590 478.731232,673.725220   C468.133820,667.447327 457.391113,661.414368 446.703094,655.289673   C422.291168,641.300537 397.865509,627.335388 373.473083,613.312378   C370.108887,611.378357 367.012146,610.417664 363.223511,612.603882   C329.052063,632.322449 294.798920,651.899414 260.627380,671.617798   C257.867737,673.210205 254.583069,674.368713 252.627365,678.017639   C258.291321,681.475525 263.791199,684.833252 269.923706,688.556641  M434.370483,408.946808   C421.959625,416.131866 409.015747,422.445038 397.385834,430.492645   C398.171753,432.981110 399.582062,433.623291 400.870087,434.358002   C436.015472,454.404358 471.245972,474.303894 506.235931,494.617828   C511.840118,497.871429 515.981689,497.484406 521.278564,494.367493   C551.404785,476.639954 581.710876,459.218170 611.924194,441.638153   C617.465576,438.413818 623.480591,435.923340 628.661499,431.639526   C626.203186,428.059113 622.481445,427.100159 619.409607,425.314362   C585.733276,405.736511 551.983276,386.285370 518.311096,366.700317   C514.602112,364.542999 511.619476,364.525146 507.769440,366.770508   C483.606079,380.862488 459.278503,394.672791 434.370483,408.946808  M558.167664,175.677109   C554.400391,177.812317 550.627441,179.937698 546.867065,182.084961   C541.030823,185.417526 540.945251,186.568283 546.676208,189.904388   C559.197144,197.193176 571.780945,204.374237 584.351929,211.576904   C607.177307,224.654968 630.035217,237.676483 652.818787,250.827026   C656.386597,252.886337 659.230591,252.802124 662.927856,250.665710   C695.361877,231.924377 727.954590,213.457916 760.440613,194.806091   C764.947083,192.218735 769.744812,189.944962 773.548767,186.453140   C772.460022,184.027863 770.612976,183.416901 769.076660,182.528381   C735.342957,163.018570 701.418762,143.829071 667.958069,123.862755   C660.240601,119.257690 654.742798,120.194633 647.665039,124.502022   C618.514404,142.242554 588.866028,159.142288 558.167664,175.677109  M353.527893,438.344635   C346.066895,433.957245 338.642242,429.506592 331.138428,425.193726   C302.265228,408.598572 273.369385,392.042786 244.470551,375.492310   C242.796967,374.533844 241.226593,372.591248 239.085220,373.637207   C236.675690,374.814178 237.316437,377.371735 237.315323,379.457062   C237.294250,419.102386 237.360809,458.747894 237.243851,498.392853   C237.232040,502.392242 238.556564,504.745728 242.025253,506.737518   C274.370209,525.310181 306.609283,544.067200 338.935913,562.671936   C343.757996,565.447083 348.490417,568.510132 353.870941,570.357788   C355.416718,567.686218 354.905029,565.136902 354.906158,562.713867   C354.924316,523.235229 354.889954,483.756561 354.849487,444.277924   C354.847626,442.467865 355.110565,440.592896 353.527893,438.344635  M257.828156,844.620056   C289.772614,862.979126 321.717072,881.338196 353.725189,899.733826   C355.275360,896.890320 354.874786,894.686096 354.875153,892.567871   C354.882202,853.247620 354.788635,813.927063 354.924530,774.607361   C354.939545,770.260010 353.676270,767.602661 349.888641,765.333008   C314.310913,744.014221 277.849213,724.234314 242.072250,703.264954   C240.851593,702.549561 239.548325,701.496094 237.716309,702.562927   C237.596924,703.229553 237.329086,704.028442 237.328644,704.827454   C237.305420,746.313660 237.320465,787.799866 237.266220,829.286011   C237.262680,832.001465 238.500259,833.634583 240.688904,834.871643   C246.197922,837.985291 251.692734,841.124146 257.828156,844.620056  M681.854980,731.321045   C688.438354,727.418213 694.968262,723.421631 701.614563,719.629028   C729.224792,703.873718 756.855713,688.154297 784.523743,672.500671   C787.489136,670.822937 788.679321,668.661682 788.672729,665.258179   C788.595337,625.285767 788.629395,585.313171 788.598694,545.340576   C788.597107,543.267151 789.011841,540.927612 786.321045,539.465332   C784.671936,540.315247 782.874634,541.157410 781.157166,542.139099   C746.324585,562.048401 711.527893,582.020874 676.638428,601.829956   C672.716797,604.056519 671.067322,606.593384 671.088379,611.274048   C671.260254,649.413635 671.133911,687.554443 671.136719,725.694885   C671.137512,736.106201 669.864075,738.739868 681.854980,731.321045  M788.612122,767.500122   C788.568054,745.892395 788.523987,724.284607 788.479919,702.676880   C787.912964,702.496399 787.345947,702.315918 786.778992,702.135498   C779.612244,706.263428 772.446594,710.393188 765.278748,714.519043   C735.414246,731.708374 705.565613,748.925232 675.659302,766.041504   C672.602295,767.791077 671.085266,769.827332 671.097168,773.524109   C671.225037,813.161743 671.188416,852.799805 671.258057,892.437622   C671.270508,899.506958 671.993347,899.928894 678.250427,896.341858   C713.335144,876.228577 748.331665,855.960449 783.502808,835.999817   C787.674744,833.632080 788.780334,830.899719 788.733337,826.457703   C788.528931,807.140259 788.623840,787.819580 788.612122,767.500122  M382.412170,467.221680   C382.574280,474.215607 382.895416,481.210052 382.871063,488.203339   C382.762604,519.359070 382.583740,550.514648 382.345093,581.669617   C382.317749,585.242188 382.936005,587.848633 386.478241,589.871826   C421.769897,610.028564 456.951263,630.378418 492.193756,650.621521   C494.121429,651.728760 496.047089,653.292542 499.051422,652.526855   C500.277313,644.660583 499.601440,636.698853 499.445770,628.780884   C498.780823,594.959351 499.006958,561.135864 499.310364,527.315674   C499.345673,523.382324 498.404449,521.390137 495.051666,519.466003   C460.812531,499.816376 426.673248,479.992859 392.494232,460.238373   C389.792145,458.676605 387.176575,456.825226 383.586609,456.667358   C381.607697,459.717255 382.608826,463.116150 382.412170,467.221680  M617.063049,931.545471   C624.253296,927.353210 631.386414,923.058350 638.658813,919.013855   C642.080872,917.110657 643.790710,914.656494 643.645142,910.629211   C643.434631,904.806335 643.601379,898.970032 643.598633,893.139465   C643.582703,859.511902 643.576660,825.884399 643.536011,792.256836   C643.528015,785.651184 642.490234,785.062073 636.705566,788.494995   C632.125610,791.213135 627.772522,794.320557 623.148926,796.957458   C592.925598,814.193970 562.715027,831.455200 532.338562,848.418823   C527.721802,850.997009 526.202942,853.997131 526.225952,859.094360   C526.399719,897.575623 526.309937,936.057983 526.337585,974.540039   C526.343201,982.308960 527.635986,983.142517 534.239319,979.345825   C561.662842,963.578064 589.035156,947.721313 617.063049,931.545471  M274.161804,230.388489   C262.177094,223.834885 250.795441,216.146332 238.380981,210.196060   C236.929642,213.190216 237.301117,215.389908 237.299210,217.514542   C237.265579,255.003860 237.456512,292.494934 237.105057,329.981018   C237.036621,337.281647 238.882507,341.481659 245.650833,345.254242   C279.253113,363.983826 312.459900,383.422455 345.841553,402.549255   C348.368622,403.997131 350.807404,405.831116 353.770142,406.237396   C355.366974,404.476990 354.927521,402.555023 354.928406,400.799408   C354.948029,361.477661 354.850098,322.155579 355.007690,282.834534   C355.026398,278.170868 353.305573,275.678040 349.376434,273.456329   C324.440521,259.356476 299.632141,245.031113 274.161804,230.388489  M788.669739,258.500397   C788.609131,242.688126 788.548523,226.875870 788.488831,211.289932   C785.185120,210.834976 783.910339,212.023499 782.491699,212.848557   C771.841187,219.042496 761.209290,225.268890 750.531555,231.415619   C725.709290,245.704880 700.894470,260.007568 675.994568,274.160522   C672.542297,276.122833 670.977661,278.428589 671.097656,282.471832   C671.344604,290.792786 671.159119,299.126465 671.161499,307.454895   C671.170349,338.437012 671.168884,369.419159 671.205566,400.401245   C671.213989,407.477112 671.894470,407.894348 678.136536,404.338531   C685.946899,399.889343 693.618164,395.196289 701.413940,390.720886   C728.844116,374.973755 756.263977,359.207642 783.796631,343.641266   C787.295166,341.663330 788.725830,339.533356 788.700562,335.455811   C788.543579,310.138214 788.654846,284.819000 788.669739,258.500397  M437.588959,816.013489   C419.799133,805.685669 402.009338,795.357849 384.405121,785.137695   C381.795563,787.746216 382.393311,790.214966 382.391022,792.457520   C382.350739,831.780823 382.416962,871.104248 382.301544,910.427307   C382.289398,914.561829 383.514618,917.073608 387.245087,919.195312   C422.428406,939.205688 457.498322,959.415466 492.619629,979.535095   C494.290009,980.491943 495.923523,981.879517 498.138611,981.202332   C499.665833,979.151733 499.620056,976.797058 499.569214,974.472534   C499.430847,968.146973 499.097565,961.822876 499.088898,955.497803   C499.044647,923.171509 499.049713,890.844910 499.122833,858.518616   C499.131592,854.645935 498.691132,851.381775 494.871674,849.186340   C475.954529,838.312378 457.111603,827.309326 437.588959,816.013489  M526.314026,662.290405   C525.311096,668.161560 528.308228,671.177795 533.239563,673.982422   C564.367554,691.685486 595.936157,708.617004 626.600220,727.137146   C631.628601,730.174133 636.952332,732.721985 642.081726,735.465027   C643.974426,732.717712 643.633545,730.320068 643.600464,728.032593   C643.479919,719.705872 643.216125,711.381409 643.071472,703.054932   C642.538818,672.406006 644.040588,641.759155 643.160583,611.104553   C643.030396,606.568970 641.646545,603.726624 637.620056,601.530151   C604.860352,583.659729 572.917786,564.365845 540.641357,545.652527   C536.513977,543.259521 532.344971,540.874023 526.306763,538.802856   C526.306763,580.273132 526.306763,620.808350 526.314026,662.290405  M396.737244,399.180298   C407.587799,393.005524 418.444092,386.840820 429.287720,380.653931   C451.409851,368.032043 473.516266,355.382507 495.654572,342.789093   C498.400787,341.226868 499.792847,339.114227 499.612671,335.906555   C499.360687,331.420685 499.082062,326.928009 499.075439,322.437897   C499.023834,287.464203 499.043182,252.490402 499.003845,217.516693   C499.001648,215.583450 499.782104,213.161850 497.914703,211.898605   C495.699036,210.399734 493.864075,212.500092 492.078918,213.529099   C456.886993,233.814651 421.733887,254.167679 386.510803,274.398926   C383.545654,276.102020 382.283203,278.102142 382.290619,281.535645   C382.376709,321.339813 382.344025,361.144196 382.370972,400.948547   C382.372162,402.699005 381.883972,404.673218 384.027069,406.081787   C388.387939,404.712982 392.012238,401.675781 396.737244,399.180298  M623.084961,265.432892   C617.291504,262.164032 611.456360,258.966553 605.711853,255.613846   C581.273499,241.350784 556.871826,227.024780 532.431946,212.764359   C527.711243,210.009872 526.331055,210.677719 526.326355,215.809235   C526.290039,255.950897 526.339111,296.092651 526.296265,336.234314   C526.293274,339.030884 527.167786,340.925812 529.667786,342.329437   C544.183899,350.479523 558.620728,358.770874 573.136292,366.921906   C593.887451,378.574524 614.787720,389.963959 635.149475,402.300049   C637.362671,403.640930 639.558044,405.230743 642.366638,404.881927   C644.192139,401.546356 643.615906,398.162872 643.523193,394.883514   C642.788818,368.910919 642.894897,342.941620 643.443542,316.966156   C643.685730,305.498840 643.430969,294.021149 643.410400,282.548157   C643.403625,278.786896 642.254700,275.991364 638.481445,274.168335   C633.399048,271.712830 628.627930,268.612976 623.084961,265.432892  z"
   id="path1"
   style="fill:#d4aa00" />
</svg>
