<?xml version="1.0" encoding="UTF-8" standalone="no"?>
<svg
   version="1.1"
   id="Layer_1"
   x="0px"
   y="0px"
   width="100%"
   viewBox="0 0 1024 1024"
   enable-background="new 0 0 1024 1024"
   xml:space="preserve"
   sodipodi:docname="filaofc.svg"
   inkscape:version="1.4.3 (0d15f75042, 2025-12-25)"
   xmlns:inkscape="http://www.inkscape.org/namespaces/inkscape"
   xmlns:sodipodi="http://sodipodi.sourceforge.net/DTD/sodipodi-0.dtd"
   xmlns="http://www.w3.org/2000/svg"
   xmlns:svg="http://www.w3.org/2000/svg"><defs
   id="defs2" /><sodipodi:namedview
   id="namedview2"
   pagecolor="#ffffff"
   bordercolor="#000000"
   borderopacity="0.25"
   inkscape:showpageshadow="2"
   inkscape:pageopacity="0.0"
   inkscape:pagecheckerboard="0"
   inkscape:deskcolor="#d1d1d1"
   inkscape:zoom="0.71191406"
   inkscape:cx="512"
   inkscape:cy="512"
   inkscape:window-width="1920"
   inkscape:window-height="940"
   inkscape:window-x="0"
   inkscape:window-y="0"
   inkscape:window-maximized="1"
   inkscape:current-layer="Layer_1" />
<path
   fill="#000000"
   opacity="1"
   stroke="none"
   d="m 947.25362,522.64542 c 0.0264,45.75053 -0.0381,90.80096 0.17357,135.8502 0.033,7.00075 -1.96801,11.59546 -8.42052,15.28429 -59.75571,34.16104 -119.30894,68.67615 -178.96956,103.004 -52.9823,30.48523 -106.03412,60.84954 -159.04097,91.29217 -53.21299,30.56098 -106.48497,61.02088 -159.52354,91.88189 -7.51197,4.37095 -13.32437,3.84588 -20.53827,-0.351 -66.56048,-38.72318 -133.29826,-77.14154 -199.94847,-115.71074 -42.61359,-24.65961 -85.0986,-49.54255 -127.818014,-74.01687 -6.566718,-3.76202 -9.142343,-8.54099 -9.125309,-15.78738 0.148028,-63.0225 0.201415,-126.04541 0.149072,-189.06806 -0.0047,-6.04827 2.274363,-10.08602 7.494488,-13.08169 38.245293,-21.94756 76.417833,-44.02195 114.624033,-66.03775 11.52433,-6.64071 22.84619,-13.69108 34.70509,-19.67292 8.40859,-4.24146 11.26642,-9.88216 11.18942,-19.3196 -0.46843,-57.41847 -0.156,-114.8429 -0.51591,-172.26281 -0.0494,-7.87437 2.75688,-12.55292 9.30408,-16.3278 37.39542,-21.56068 74.61334,-43.42894 111.99676,-65.01059 46.47096,-26.82794 93.01768,-53.52505 139.58344,-80.18828 27.12934,-15.534056 54.40788,-30.808174 81.49874,-46.408478 4.62328,-2.662306 8.52311,-2.667758 13.02754,-0.05287 55.28514,32.09444 110.60199,64.134298 165.95398,96.113168 5.12477,2.96074 6.53358,7.20656 6.52469,12.83666 -0.0918,58.58857 0.16236,117.17857 -0.20546,175.76485 -0.0555,8.84197 3.48686,13.83004 10.56619,17.84766 30.43109,17.27038 60.78429,34.6785 91.14349,52.07538 19.42951,11.13385 38.72625,22.50419 58.28565,33.40401 5.85221,3.26131 8.21172,7.40739 8.09134,14.02979 -0.32226,17.73282 -0.16965,35.47428 -0.20555,53.91275 M 611.52001,402.90964 c 0.0459,10.72225 0.24975,21.44692 0.0877,32.166 -0.12919,8.55094 2.4446,10.47683 9.86363,6.2963 14.21936,-8.01243 28.27002,-16.32375 42.40944,-24.47857 28.27626,-16.30797 56.54021,-32.63753 84.87104,-48.85015 5.21367,-2.98352 7.42425,-7.03324 7.405,-13.0977 -0.15544,-48.96973 -0.0873,-97.94014 -0.14963,-146.91025 -0.0119,-9.31778 -2.86912,-11.13846 -11.02833,-6.49415 -41.95124,23.87927 -83.7725,47.98675 -125.72606,71.86208 -5.73847,3.26573 -7.93383,7.45896 -7.88466,14.13635 0.27899,37.99906 0.14492,76.0012 0.15185,115.37009 m 114.58725,149.62051 c -4.06101,-2.29248 -8.14084,-4.55239 -12.18005,-6.88274 -30.70598,-17.71539 -61.38075,-35.48514 -92.12171,-53.13947 -7.3001,-4.19238 -9.83969,-2.577 -10.25805,6.06621 -0.0564,1.16442 -0.0422,2.33284 -0.0428,3.4994 -0.0254,47.36544 0.0712,94.73161 -0.20375,142.09566 -0.0404,6.9574 2.3307,11.242 8.28149,14.66772 42.04187,24.20167 83.94788,48.63931 125.93776,72.93161 7.56934,4.37891 10.58688,2.54599 10.52694,-6.34572 -0.11324,-16.79143 -0.51976,-33.58108 -0.59595,-50.37243 -0.148,-32.64911 -0.21752,-65.29898 -0.15039,-97.94809 0.0106,-5.29327 -2.0353,-8.81212 -6.54348,-11.35941 -7.31019,-4.13061 -14.50597,-8.4635 -22.65005,-13.21274 M 349.73122,334.93001 c -21.6222,-12.49402 -43.21193,-25.04484 -64.88718,-37.44617 -6.21395,-3.55527 -8.15737,-2.32716 -8.67231,4.88513 -0.083,1.16291 -0.0814,2.33335 -0.082,3.50033 -0.0195,47.6276 0.16172,95.25682 -0.22944,142.88135 -0.0713,8.67446 3.07944,13.58835 10.41151,17.77907 40.72496,23.27699 81.22265,46.95157 121.80454,70.47913 8.05414,4.66954 11.83277,2.69333 11.83962,-6.49269 0.036,-48.32902 -0.10762,-96.65834 0.008,-144.98706 0.0183,-7.62414 -2.89011,-12.45283 -9.6632,-16.17454 -20.04091,-11.01212 -39.77863,-22.57609 -60.53001,-34.42455 m 93.66037,467.19754 c 0.17813,18.4099 0.49903,36.8199 0.49651,55.22981 -0.002,20.74018 -0.42516,41.48055 -0.39978,62.22047 0.009,8.01626 2.96848,9.42713 10.039,5.41033 15.00038,-8.52183 30.00759,-17.03162 44.99229,-25.58082 26.52706,-15.13432 52.99077,-30.38063 79.59375,-45.38003 6.29151,-3.54733 9.53453,-7.93059 9.28897,-15.5868 -0.38031,-11.85813 0.53318,-23.75115 0.48967,-35.62792 -0.13304,-36.34084 -0.46018,-72.68098 -0.71335,-109.0214 -0.0703,-10.09346 -2.35824,-11.43439 -11.08392,-6.42241 -41.64966,23.92343 -83.25898,47.91774 -124.97627,71.72268 -5.29161,3.01959 -7.73354,7.06445 -7.70324,12.98316 0.049,9.56258 -0.0118,19.12565 -0.0236,30.05293 M 923.1579,517.74307 c 0.0381,-6.53584 0.19707,-13.0738 0.0828,-19.60699 -0.13151,-7.50906 -2.58807,-9.09418 -8.96901,-5.43264 -42.90509,24.61968 -85.74034,49.36107 -128.61389,74.0359 -4.27614,2.461 -6.20362,6.0196 -6.11101,10.94967 0.13134,7.0005 0.0106,14.00561 0.0121,21.00876 0.007,42.71955 3.4e-4,85.43911 0.0435,128.15866 0.009,8.72337 1.54991,9.58609 9.38209,5.57056 1.03825,-0.53225 2.07359,-1.07374 3.08389,-1.65678 40.82029,-23.5533 81.57381,-47.22373 122.52253,-70.55172 6.26826,-3.57109 8.74578,-7.779 8.6955,-15.01975 -0.29191,-42.01681 -0.14928,-84.03654 -0.12834,-127.45567 M 108.23879,711.06221 c -0.009,8.86332 0.56241,17.77565 -0.18168,26.57682 -0.83209,9.84233 3.52093,15.29183 11.76953,19.91731 26.23201,14.70973 52.10165,30.06524 78.1293,45.14013 14.52704,8.41393 29.05797,16.82222 43.64923,25.12398 7.90052,4.49502 10.17215,3.07979 10.3839,-6.14933 0.0268,-1.16582 0.0258,-2.33232 0.0253,-3.49858 -0.0227,-47.34924 -0.18153,-94.69917 0.0788,-142.04679 0.0377,-6.85506 -2.60676,-10.68316 -8.21959,-13.89591 -27.11374,-15.51943 -54.08275,-31.2915 -81.12643,-46.93363 -15.13698,-8.75525 -30.26739,-17.52435 -45.50711,-26.09817 -6.10294,-3.43351 -8.42853,-1.98502 -8.86965,5.00821 -0.16126,2.55685 -0.0879,5.12961 -0.0891,7.6951 -0.0162,35.92001 -0.0268,71.84 -0.0424,109.16086 m 306.16315,215.69448 c 5.81928,-0.59467 4.98996,-5.05892 5.20294,-8.92601 1.00192,-18.18829 -0.52656,-36.35307 -0.50172,-54.53331 0.0408,-29.85533 -0.23727,-59.71339 0.11617,-89.56443 0.0889,-7.50564 -2.51204,-11.83068 -8.99085,-15.52918 -41.30659,-23.58022 -82.40151,-47.53101 -123.57707,-71.34091 -8.1676,-4.72297 -10.24577,-3.60425 -10.25322,5.71908 -0.0386,48.51464 0.0966,97.0298 -0.13625,145.54333 -0.0323,6.72783 2.39129,10.76328 8.0962,13.99381 17.64971,9.99426 35.05806,20.41374 52.63594,30.53635 25.45354,14.65788 50.97361,29.20054 77.40785,44.10127 M 374.31767,583.65057 c 7.26833,-4.20354 14.57901,-8.33587 21.7946,-12.62816 9.69399,-5.76661 9.72836,-7.91289 0.18131,-13.4938 -15.10054,-8.82725 -30.26801,-17.54 -45.39164,-26.32784 -26.21741,-15.23414 -52.51311,-30.33725 -78.56294,-45.85291 -5.72338,-3.40893 -10.37561,-3.75454 -15.96288,-0.10633 -6.2373,4.07255 -12.92786,7.44916 -19.40601,11.15509 -34.61582,19.80236 -69.2576,39.55965 -103.8185,59.45738 -8.89178,5.11928 -9.06576,8.57246 -1.04731,13.23601 41.53197,24.15522 83.16347,48.1409 124.55843,72.52828 6.07263,3.57766 10.69422,3.40538 16.61543,-0.0333 33.27605,-19.32486 66.74466,-38.31808 101.03951,-57.93432 m 290.62909,-454.6484 c -18.51928,-10.82382 -37.1278,-21.49941 -55.50744,-32.555306 -6.08751,-3.661824 -11.59052,-3.979908 -17.61098,-0.288906 -5.96011,3.653981 -12.08848,7.034322 -18.1558,10.512552 -34.58872,19.8291 -69.19545,39.62712 -103.76416,59.49114 -10.4819,6.02317 -10.52246,8.64676 -0.0265,14.77624 41.67647,24.3385 83.42157,48.55952 125.09423,72.90458 3.17829,1.85681 5.74191,1.92632 9.01895,0.0347 42.39396,-24.471 84.876,-48.78925 127.30664,-73.19679 8.98525,-5.16866 8.95414,-8.05658 -0.0909,-13.31419 -21.77126,-12.65509 -43.58544,-25.23619 -66.26412,-38.36404 m -29.49911,343.23777 c 41.5893,24.01295 83.23452,47.9302 124.7018,72.15203 5.59212,3.26653 9.76377,3.12297 15.33227,-0.15878 28.31303,-16.6866 56.89667,-32.91386 85.37884,-49.31388 13.33364,-7.67753 26.7014,-15.29801 39.95638,-23.10944 6.75142,-3.97881 6.73295,-6.97023 0.30644,-11.09336 -1.176,-0.75443 -2.41288,-1.41395 -3.6241,-2.11306 -37.15294,-21.44296 -74.2337,-43.01231 -111.48831,-64.27715 -20.28839,-11.5805 -13.91462,-12.683 -35.086,0.17815 -1.59342,0.96801 -3.23669,1.85373 -4.8549,2.78118 -37.01553,21.21463 -74.04997,42.39661 -111.02967,63.67357 -7.11294,4.09262 -7.06574,5.54555 0.40725,11.28074 m -244.7257,129.37014 c -30.10691,17.35856 -60.2252,34.69738 -90.31296,52.08914 -7.81285,4.51606 -7.75732,7.54728 0.17332,12.16772 14.30738,8.33528 28.65201,16.60693 42.98568,24.89714 26.64873,15.41298 53.39913,30.65418 79.87997,46.35025 6.32435,3.74874 11.48501,3.44061 17.39065,-0.35929 6.65805,-4.28392 13.66278,-8.03071 20.53211,-11.98459 34.5585,-19.89123 69.12948,-39.76084 103.67692,-59.6714 6.07116,-3.49901 6.29466,-6.00379 0.57422,-9.33616 -42.52196,-24.77033 -85.12195,-49.40693 -127.62411,-74.21104 -4.65864,-2.7188 -8.59802,-2.25477 -13.02216,0.36663 -11.03482,6.53844 -22.22198,12.81968 -34.25364,19.6916 M 570.10958,301.85528 c -34.95878,20.14945 -69.92201,40.29111 -104.87335,60.45352 -8.89393,5.13072 -8.85037,8.05186 0.10704,13.22915 36.54776,21.12423 73.09961,42.24118 109.63762,63.3822 10.49488,6.07237 13.18973,4.63909 13.19068,-7.30583 0.003,-40.13597 -0.0357,-80.27195 -0.0715,-120.40792 -0.0163,-18.35823 -0.66787,-18.72555 -17.99044,-9.35112 M 483.59314,547.3884 c -5.87493,3.34185 -11.86523,6.49867 -17.59703,10.07028 -8.009,4.99067 -7.88866,7.86911 0.35774,12.70511 11.2617,6.60428 22.59335,13.08927 33.89487,19.62575 26.03722,15.05917 52.04733,30.16536 78.12928,45.14679 7.02981,4.03793 9.9882,2.65143 10.00445,-4.6667 0.0974,-43.85025 0.11147,-87.7009 0.0368,-131.55116 -0.0141,-8.26148 -2.70255,-9.70745 -9.80847,-5.65229 -31.38958,17.91323 -62.75743,35.86451 -95.01758,54.32222 M 473.24518,407.56435 c -7.09487,-4.04023 -14.181,-8.09581 -21.28781,-12.11502 -4.39739,-2.48683 -7.15124,-1.12898 -8.08135,3.74517 -0.39018,2.04461 -0.51198,4.16772 -0.51291,6.2553 -0.0189,41.77569 -0.0258,83.55149 0.0265,125.32714 0.0105,8.60955 3.25104,10.30908 10.88362,5.96839 22.50828,-12.80066 45.05894,-25.52728 67.52562,-38.40058 14.77471,-8.46591 29.45801,-17.09253 44.13224,-25.73197 7.26562,-4.27764 7.19407,-7.32322 -0.1209,-11.94698 -2.16843,-1.3706 -4.39731,-2.64826 -6.62438,-3.92314 -28.34765,-16.22781 -56.7001,-32.44736 -85.94068,-49.17831 m 204.49626,312.43712 c -18.14673,-10.51959 -36.28509,-21.05381 -54.44378,-31.55272 -9.40739,-5.43914 -11.95655,-4.06887 -11.96476,6.64806 -0.0318,41.73072 -0.008,83.46137 0.0502,125.1921 0.0149,10.58935 3.06953,12.48468 12.03461,7.31992 36.33853,-20.93496 72.64097,-41.93277 108.9105,-62.987 8.02678,-4.65953 8.02104,-8.18813 0.0912,-12.82935 -17.90057,-10.47677 -35.8651,-20.84433 -54.67798,-31.79101 M 451.56054,199.47654 c -6.40711,-1.72616 -7.38858,-0.75315 -7.44442,7.74329 -0.27112,41.27328 -0.53828,82.54663 -0.75815,123.8202 -0.0756,14.18915 1.31818,14.96422 13.9369,7.68965 35.75917,-20.6148 71.4885,-41.28145 107.22629,-61.93327 8.50961,-4.9175 8.67145,-7.05915 0.0259,-12.08373 C 527.24445,243.0335 489.84027,221.52944 451.5605,199.47654 m -113.7946,99.62453 c 23.8245,13.77132 47.61799,27.59679 71.49123,41.28307 7.76223,4.45001 10.70261,2.72996 10.71663,-6.15393 0.0671,-42.46943 0.0812,-84.93901 0.0356,-127.40843 -0.008,-7.58143 -2.79066,-9.36741 -9.51567,-5.9056 -7.46006,3.8402 -14.70771,8.10056 -21.98425,12.28846 -29.51647,16.98775 -59.06724,33.91741 -88.4717,51.09733 -8.21403,4.79916 -8.04572,8.06136 -0.0301,12.77539 12.26469,7.21284 24.59329,14.31698 37.7582,22.02371 z"
   id="path1"
   style="fill:#d4aa00;stroke-width:1.40087" />

</svg>
